# xmcd CD database file
#
# Track frame offsets:
#	150
#	15267
#	30768
#	47594
#	64157
#	80440
#	95034
#	108909
#	123894
#	137844
#	150579
#	167718
#
# Disc length: 2459 seconds
#
# Revision: 0
# Processed by: cddbd v1.5.2PL0 Copyright (c) Steve Scherf et al.
# Submitted via: CDex 1.96
#
DISCID=8709990c
DTITLE=Montgomery Gentry - Here's To You
DYEAR=2018
DGENRE=Country
TTITLE0=Shotgun Wedding
TTITLE1=Better Me
TTITLE2=Needing A Beer
TTITLE3=What'cha Say We Don't
TTITLE4=Crazies Welcome
TTITLE5=Get Down South
TTITLE6=Drive On Home
TTITLE7=Feet Back On The Ground
TTITLE8=Drink Along Song
TTITLE9=King Of The World
TTITLE10=That's The Thing About America
TTITLE11=All Hell Broke Loose
EXTD=YEAR: 2018
EXTT0=
EXTT1=
EXTT2=
EXTT3=
EXTT4=
EXTT5=
EXTT6=
EXTT7=
EXTT8=
EXTT9=
EXTT10=
EXTT11=
PLAYORDER=
